<?xml version="1.0"?>
<svg xmlns="http://www.w3.org/2000/svg" viewBox="0 0 24 24">
    <path d="M 12 2 C 6.486 2 2 6.486 2 12 C 2 16.177 4.57375 19.756 8.21875 21.25 L 8.5625 19.21875 C 5.8635 17.93275 4 15.184 4 12 C 4 7.589 7.589 4 12 4 C 16.411 4 20 7.589 20 12 C 20 15.184 18.1365 17.93175 15.4375 19.21875 L 15.78125 21.25 C 19.42625 19.755 22 16.177 22 12 C 22 6.486 17.514 2 12 2 z M 12 6 C 8.691 6 6 8.691 6 12 C 6 14.188 7.1835 16.10725 8.9375 17.15625 L 9.3125 14.9375 C 8.5095 14.2055 8 13.169 8 12 C 8 9.794 9.794 8 12 8 C 14.206 8 16 9.794 16 12 C 16 13.169 15.4905 14.2055 14.6875 14.9375 L 15.0625 17.15625 C 16.8165 16.10725 18 14.188 18 12 C 18 8.691 15.309 6 12 6 z M 12 10 C 10.895431 10 10 10.895431 10 12 C 10 12.739604 10.403104 13.372707 11 13.71875 L 11 22 L 13 22 L 13 13.71875 C 13.596896 13.372707 14 12.739604 14 12 C 14 10.895431 13.104569 10 12 10 z"/>
</svg>
